<svg xmlns="http://www.w3.org/2000/svg" viewBox="0 0 192 192">
  <defs>
    <linearGradient id="bg" x1="28" y1="18" x2="164" y2="174" gradientUnits="userSpaceOnUse">
      <stop stop-color="#194f52"/>
      <stop offset=".48" stop-color="#0f2627"/>
      <stop offset="1" stop-color="#061313"/>
    </linearGradient>
    <linearGradient id="glass" x1="54" y1="50" x2="138" y2="148" gradientUnits="userSpaceOnUse">
      <stop stop-color="#ffffff" stop-opacity=".94"/>
      <stop offset=".45" stop-color="#dff9f6" stop-opacity=".62"/>
      <stop offset="1" stop-color="#ffffff" stop-opacity=".22"/>
    </linearGradient>
    <linearGradient id="gold" x1="124" y1="38" x2="162" y2="80" gradientUnits="userSpaceOnUse">
      <stop stop-color="#fff2b8"/>
      <stop offset=".55" stop-color="#ffc857"/>
      <stop offset="1" stop-color="#ff9f1c"/>
    </linearGradient>
    <filter id="shadow" x="-20%" y="-20%" width="140%" height="150%">
      <feDropShadow dx="0" dy="14" stdDeviation="10" flood-color="#000000" flood-opacity=".35"/>
    </filter>
  </defs>
  <rect width="192" height="192" rx="43" fill="url(#bg)"/>
  <path d="M28 36c22-19 73-23 96-8 20 13 37 15 48 8-6 23-28 34-52 27-25-7-43-4-66 9-21 12-40 5-26-36Z" fill="#ffffff" opacity=".16"/>
  <path d="M33 151c31 15 78 17 118 0 11-5 19-12 25-22-2 26-20 44-48 49-37 7-82 2-112-14 3-5 8-9 17-13Z" fill="#57f0d7" opacity=".13"/>
  <g filter="url(#shadow)">
    <path d="M51 72c0-12 10-22 22-22h47c12 0 22 10 22 22v55c0 12-10 22-22 22H73c-12 0-22-10-22-22V72Z" fill="url(#glass)" stroke="#ffffff" stroke-opacity=".62" stroke-width="3"/>
    <path d="M74 43h44l10 21H64l10-21Z" fill="#ffffff" fill-opacity=".72" stroke="#ffffff" stroke-opacity=".62" stroke-width="3"/>
    <circle cx="96" cy="101" r="28" fill="#082426" fill-opacity=".82" stroke="#ffffff" stroke-opacity=".78" stroke-width="5"/>
    <circle cx="96" cy="101" r="13" fill="#ffffff" fill-opacity=".9"/>
    <path d="M116 91h15v11h-15z" fill="#ffcf66" rx="3"/>
  </g>
  <g>
    <path d="M137 39 143 55 159 61 143 67 137 83 131 67 115 61 131 55Z" fill="url(#gold)"/>
    <circle cx="157" cy="37" r="4" fill="#fff2b8"/>
  </g>
  <g opacity=".9">
    <path d="M62 132h68" stroke="#ffffff" stroke-opacity=".62" stroke-width="5" stroke-linecap="round"/>
    <path d="M72 119h48" stroke="#ffffff" stroke-opacity=".36" stroke-width="4" stroke-linecap="round"/>
  </g>
</svg>
