<svg xmlns="http://www.w3.org/2000/svg" viewBox="0 0 512 512">
  <defs>
    <linearGradient id="bg" x1="72" y1="48" x2="440" y2="464" gradientUnits="userSpaceOnUse">
      <stop stop-color="#194f52"/>
      <stop offset=".48" stop-color="#0f2627"/>
      <stop offset="1" stop-color="#061313"/>
    </linearGradient>
    <linearGradient id="glass" x1="144" y1="132" x2="368" y2="394" gradientUnits="userSpaceOnUse">
      <stop stop-color="#ffffff" stop-opacity=".94"/>
      <stop offset=".45" stop-color="#dff9f6" stop-opacity=".62"/>
      <stop offset="1" stop-color="#ffffff" stop-opacity=".22"/>
    </linearGradient>
    <linearGradient id="gold" x1="330" y1="98" x2="430" y2="214" gradientUnits="userSpaceOnUse">
      <stop stop-color="#fff2b8"/>
      <stop offset=".55" stop-color="#ffc857"/>
      <stop offset="1" stop-color="#ff9f1c"/>
    </linearGradient>
    <filter id="shadow" x="-20%" y="-20%" width="140%" height="150%">
      <feDropShadow dx="0" dy="34" stdDeviation="26" flood-color="#000000" flood-opacity=".35"/>
    </filter>
  </defs>
  <rect width="512" height="512" rx="112" fill="url(#bg)"/>
  <path d="M74 96c59-51 195-62 256-22 54 35 99 40 128 21-16 61-75 90-138 72-67-19-115-11-176 24-57 33-107 13-70-95Z" fill="#ffffff" opacity=".16"/>
  <path d="M88 403c83 40 208 45 314 0 31-13 51-32 65-59-4 70-53 117-126 131-100 19-219 6-299-37 8-13 22-25 46-35Z" fill="#57f0d7" opacity=".13"/>
  <g filter="url(#shadow)">
    <path d="M136 192c0-33 27-60 60-60h124c33 0 60 27 60 60v145c0 33-27 60-60 60H196c-33 0-60-27-60-60V192Z" fill="url(#glass)" stroke="#ffffff" stroke-opacity=".62" stroke-width="9"/>
    <path d="M197 114h120l26 56H171l26-56Z" fill="#ffffff" fill-opacity=".72" stroke="#ffffff" stroke-opacity=".62" stroke-width="9"/>
    <circle cx="256" cy="269" r="76" fill="#082426" fill-opacity=".82" stroke="#ffffff" stroke-opacity=".78" stroke-width="14"/>
    <circle cx="256" cy="269" r="36" fill="#ffffff" fill-opacity=".9"/>
    <path d="M309 242h41v30h-41z" fill="#ffcf66" rx="8"/>
  </g>
  <g>
    <path d="M365 102 382 146 426 163 382 180 365 224 348 180 304 163 348 146Z" fill="url(#gold)"/>
    <circle cx="418" cy="98" r="11" fill="#fff2b8"/>
  </g>
  <g opacity=".9">
    <path d="M167 352h181" stroke="#ffffff" stroke-opacity=".62" stroke-width="14" stroke-linecap="round"/>
    <path d="M191 318h130" stroke="#ffffff" stroke-opacity=".36" stroke-width="11" stroke-linecap="round"/>
  </g>
</svg>
